<?xml version="1.0" encoding="utf-8"?>
<!-- Generator: Adobe Illustrator 27.5.0, SVG Export Plug-In . SVG Version: 6.00 Build 0)  -->
<svg version="1.1" xmlns="http://www.w3.org/2000/svg" xmlns:xlink="http://www.w3.org/1999/xlink" x="0px" y="0px"
	 viewBox="0 0 500 500" style="enable-background:new 0 0 500 500;" xml:space="preserve">
<g id="BACKGROUND">
	<rect style="fill:transparent;" width="500" height="500"/>
</g>
<g id="OBJECTS">
	<g>
		<g>
			<path style="fill:#512F07;" d="M364.536,449.316l-9.002-9.964l2.968-21.939c0.112-0.83-0.47-1.595-1.301-1.707
				c-0.825-0.115-1.594,0.471-1.707,1.301l-2.95,21.802l-12.948,5.234c-0.777,0.314-1.152,1.199-0.839,1.976
				c0.314,0.776,1.199,1.153,1.976,0.839l10.041-4.06l-5.104,10.755c-0.359,0.757-0.037,1.662,0.721,2.021
				c0.21,0.1,0.432,0.147,0.649,0.147c0.567,0,1.112-0.32,1.372-0.867l5.868-12.362l8.004,8.859c0.3,0.331,0.712,0.5,1.126,0.5
				c0.363,0,0.728-0.129,1.018-0.392C365.049,450.898,365.097,449.938,364.536,449.316z"/>
			<path style="fill:#512F07;" d="M411.089,442.591l-12.876-5.334l-1.526-21.145c-0.061-0.837-0.801-1.475-1.623-1.404
				c-0.836,0.061-1.465,0.787-1.404,1.623l1.574,21.797l-9.105,9.525c-0.579,0.606-0.558,1.566,0.048,2.146
				c0.294,0.281,0.672,0.421,1.049,0.421c0.399,0,0.799-0.157,1.097-0.469l8.204-8.583l5.661,12.168
				c0.257,0.553,0.805,0.877,1.377,0.877c0.214,0,0.432-0.045,0.64-0.142c0.76-0.354,1.089-1.256,0.735-2.017l-5.029-10.807
				l10.016,4.15c0.777,0.319,1.663-0.047,1.983-0.821C412.23,443.8,411.863,442.912,411.089,442.591z"/>
		</g>
		<g>
			<path style="fill:#FFD57F;" d="M335.021,329.056c0,0,0.62-1.626-2.169,3.791c-0.266,0.516-0.459,1.235-0.726,1.773
				c-1.666,3.365-4.472,7.923-6.068,12.268c-3.021,8.221-4.467,17.362-5.043,28.044c-1.138,21.12,17.121,36.86,31.743,41.734
				c12.728,4.243,39.066,5.253,55.772-4.426c5.699-3.302,12.973-9.034,16.685-14.582c3.924-5.864,5.65-12.324,6.536-21.931
				c0.87-9.433-4.474-33.24-12.313-41.169c-12.194-12.334-24.282-25.23-47.9-23.428C345.36,311.509,335.021,329.056,335.021,329.056
				z"/>
			<path style="fill:#B78029;" d="M332.126,334.585c0,0-0.369,1.107-1.416,3.309c-1.078,2.265-4.142,8.48-5.521,13.263
				c-2.099,7.279-2.916,13.565-2.403,22.574c1.012,17.769,5.944,25.357,5.944,25.357s-8.803-7.501-13.406-15.555
				c-5.818-10.181-5.963-23.6-2.221-31.944C318.866,338.734,332.126,334.585,332.126,334.585z"/>
			<path style="fill:#B78029;" d="M419.438,334.558c0,0,8.568,14.386,9.58,37.466c0.706,16.109-5.26,27.604-5.26,27.604
				s10.431-9.635,14.352-22.072c1.834-5.818,3.129-16.164,0.147-23.652C432.186,338.663,419.438,334.558,419.438,334.558z"/>
		</g>
		<g>
			<path style="fill:#FF993F;" d="M414.98,378.209c-6.45,10.75-20.604,18.685-38.699,18.844
				c-14.417,0.126-24.535-3.162-30.985-8.094c-8.399-6.423-14.039-17.159-15.176-25.041c-1.174-8.131-0.601-21.737,1.676-28.424
				c1.362-4,2.395-5.221,3.747-8.394c8.406-19.747,22.546-25.426,34.668-26.795c9.141-1.031,17.118,1.591,27.067,7.395
				c8.925,5.207,16.069,13.398,21.413,24.947c0.612,1.323,2.74,6.737,3.204,14.37C422.73,360.761,420.485,369.034,414.98,378.209z"
				/>
			<path style="fill:#B78029;" d="M338.973,320.014c4.964-7.999,10.394-12.855,16.346-15.872c5.951-3.016,11.904-4.916,20.267-4.584
				c11.7,0.464,17.484,2.99,25.799,9.675c12.9,11.287,16.93,22.619,16.93,22.619s-10.32-2.847-16.344-6.203
				c-6.44-3.587-11.778-10.346-13.739-10.22c-1.581-0.063-4.996,6.07-19.44,6.632c-13.288-0.004-15.225-7.83-17.181-5.385
				c-0.839,1.049-4.987,5.929-8.331,8.913c-4.443,3.965-10.505,7.367-10.505,7.367S337.371,322.512,338.973,320.014z"/>
			<g>
				<path style="fill:#512F07;" d="M395.88,369.828c-0.717-0.055-1.327,0.465-1.387,1.17l-0.458,5.406
					c-0.06,0.706,0.464,1.327,1.17,1.387c0.037,0.003,0.073,0.005,0.109,0.005c0.66,0,1.221-0.506,1.277-1.175l0.458-5.406
					C397.11,370.509,396.587,369.888,395.88,369.828z"/>
				<path style="fill:#512F07;" d="M383.779,376.313c-0.683-0.008-1.296,0.547-1.312,1.255l-0.071,3.28
					c-0.015,0.709,0.547,1.296,1.255,1.311c0.725,0,1.296-0.557,1.311-1.255l0.071-3.28
					C385.048,376.915,384.487,376.328,383.779,376.313z"/>
				<path style="fill:#512F07;" d="M373.718,365.421c-0.708-0.059-1.301,0.535-1.321,1.243l-0.116,3.849
					c-0.021,0.709,0.535,1.3,1.243,1.321c0.73,0.001,1.301-0.549,1.321-1.243l0.116-3.849
					C374.983,366.034,374.426,365.443,373.718,365.421z"/>
				<path style="fill:#512F07;" d="M352.676,373.595c-0.704,0.08-1.21,0.716-1.129,1.42l0.506,4.426
					c0.074,0.654,0.63,1.138,1.272,1.138c0.049,0,0.099-0.003,0.148-0.009c0.704-0.08,1.21-0.716,1.129-1.42l-0.506-4.426
					C354.016,374.02,353.373,373.513,352.676,373.595z"/>
				<path style="fill:#512F07;" d="M339.956,361.37c-0.699,0.114-1.173,0.774-1.058,1.474l0.833,5.073
					c0.103,0.629,0.647,1.075,1.264,1.075c0.069,0,0.14-0.006,0.21-0.018c0.699-0.114,1.173-0.774,1.058-1.474l-0.833-5.073
					C341.315,361.728,340.65,361.25,339.956,361.37z"/>
				<path style="fill:#512F07;" d="M408.209,359.969c-0.698-0.103-1.352,0.388-1.452,1.089l-0.575,4.022
					c-0.1,0.701,0.388,1.352,1.089,1.452c0.061,0.009,0.123,0.013,0.184,0.013c0.628,0,1.177-0.462,1.268-1.102l0.575-4.021
					C409.397,360.72,408.91,360.07,408.209,359.969z"/>
			</g>
			<g>
				<g>
					<path style="fill:#FFB69F;" d="M401.182,345.147c-3.65,0-6.609-2.361-6.609-5.273c0-2.913,2.959-5.273,6.609-5.273
						c3.652,0,6.61,2.361,6.61,5.273C407.792,342.786,404.833,345.147,401.182,345.147z"/>
					<path style="fill:#FFB69F;" d="M342.092,346.035c-3.652,0-6.61-2.361-6.61-5.273c0-2.913,2.959-5.273,6.61-5.273
						c3.65,0,6.609,2.361,6.609,5.273C348.701,343.674,345.742,346.035,342.092,346.035z"/>
				</g>
				<g>
					<path style="fill:#2B1806;" d="M395.299,330.542c0-2.409-1.923-4.361-4.296-4.361c-2.373,0-4.296,1.952-4.296,4.361
						c0,2.409,1.923,4.361,4.296,4.361C393.376,334.903,395.299,332.95,395.299,330.542z"/>
					<path style="fill:#2B1806;" d="M355.878,330.432c0-2.409-1.922-4.361-4.296-4.361c-2.372,0-4.296,1.952-4.296,4.361
						c0,2.408,1.923,4.361,4.296,4.361C353.956,334.793,355.878,332.841,355.878,330.432z"/>
				</g>
				<g>
					<path style="fill:#512F07;" d="M381.669,339.303c0.524,0.288,0.628,0.986,0.21,1.414c-0.884,0.906-2.196,1.34-4.854,3.405
						c-3.35,2.602-4.606,3.23-6.597,3.23c-2.535,0-3.95-1.229-5.561-2.848c-1.681-1.69-2.038-1.874-2.922-2.78
						c-0.825-0.846-2.003-1.393-2.003-2.019c0-1.103,1.172-0.876,3.326-2.239c1.035-0.604,4.025-4.707,7.229-4.701
						c2.593,0.005,5.918,3.014,7.845,4.706C379.373,338.375,380.952,338.909,381.669,339.303z"/>
					<path style="fill:#3A2107;" d="M380.934,339.62c0.714-0.244,1.082,0.019,1.093,0.038c0.181,0.33,0.143,0.76-0.148,1.058
						c-0.884,0.906-2.196,1.34-4.854,3.405c-3.35,2.602-4.606,3.23-6.597,3.23c-2.535,0-3.95-1.229-5.561-2.848
						c-1.681-1.69-2.038-1.874-2.922-2.78c-0.825-0.846-2.003-1.393-2.003-2.019c0-1.103,1.166,0.016,3.63,0.763
						c2.751,0.834,5.132,1.269,7.179,1.245c2.285-0.027,3.193,0.022,7.146-1.134C379.8,340.021,380.408,339.8,380.934,339.62z"/>
				</g>
			</g>
		</g>
	</g>
	<g>
		<path style="fill:#512F07;" d="M181.584,442.546l-8.078-2.503l-5.975-18.145c-0.278-0.846-1.193-1.307-2.035-1.026
			c-0.846,0.278-1.305,1.189-1.027,2.034l5.629,17.092l-5.298,1.382c-0.861,0.225-1.377,1.105-1.152,1.967
			c0.189,0.725,0.842,1.205,1.558,1.205c0.134,0,0.271-0.018,0.408-0.053l6.182-1.613l8.834,2.738
			c0.159,0.05,0.319,0.073,0.478,0.073c0.688,0,1.325-0.444,1.538-1.136C182.909,443.712,182.434,442.81,181.584,442.546z"/>
		<path style="fill:#A87129;" d="M29.848,407.848c-0.278,0.143-0.083,0.43,0.585,0.606c3.827,1.007,17.025,4.308,35.654,3.676
			c17.827-0.604,28.32-3.528,28.32-3.528s-7.552-7.814-11.5-13.493c-3.192-4.593-6.152-10.98-6.152-10.98L53.79,395.549
			l-10.934,5.616L29.848,407.848z"/>
		<path style="fill:#FFD57F;" d="M99.483,357.606c-10.683,7.93-22.677,26.551-22.677,26.551s6.549,26.418,42.26,37.843
			c15.188,4.86,36.259,4.284,48.042,1.522c22.713-5.323,36.637-18.131,45.224-34.298c1.095-2.061,3.173-7.512,3.173-7.512
			s-12.563-23.844-21.212-30.134c-10.286-7.481-38.173-15.409-55.555-11.59C120.79,343.934,117.635,344.132,99.483,357.606z"/>
		<path style="fill:#512F07;" d="M150.834,445.836l-8.283-1.433l-8.692-21.989c-0.327-0.827-1.264-1.23-2.091-0.906
			c-0.828,0.327-1.233,1.264-0.906,2.092l8.22,20.794l-6.308,1.772c-0.856,0.241-1.356,1.131-1.115,1.987
			c0.2,0.711,0.846,1.177,1.55,1.177c0.145,0,0.291-0.02,0.437-0.061l6.91-1.941l9.729,1.683c0.093,0.016,0.186,0.023,0.277,0.023
			c0.77,0,1.45-0.553,1.586-1.337C152.299,446.822,151.711,445.988,150.834,445.836z"/>
		<g>
			<path style="fill:#FF993F;" d="M220.229,343.642c-1.725-12.77-5.956-23.465-15.448-31.284c-9.492-7.819-16.808-8.19-25.196-8.045
				c-11.124,0.193-26.217,7.01-34.636,18.702c-9.621,13.362-11.959,20.687-13.369,29.326c-2.233,13.698,0.268,24.466,6.043,31.921
				c8.365,10.795,19.042,15.711,33.387,17.466c18.155,2.221,37.378-3.892,43.234-17.094
				C220.187,371.238,221.955,356.412,220.229,343.642z"/>
			<path style="fill:#B78029;" d="M207.366,314.685c0,0-6.878,1.269-15.675,0.666c-7.039-0.482-8.547-1.262-13.053-2.048
				c-4.151-0.725-4.516,4.764-12.649,15.38c-12.152,15.863-21.625,19.169-21.625,19.169s-1.928,1.057-5.958,5.539
				c-4.032,4.48-6.978,10.505-6.978,10.505s-1.96-11.021,3.02-22.266c4.345-9.811,6.271-15.463,17.082-25.988
				c6.95-6.849,20.495-13.858,33.875-11.952C200.61,306.138,207.366,314.685,207.366,314.685z"/>
			<g>
				<path style="fill:#FFB69F;" d="M182.211,339.222c0.298-3.123-2.635-5.959-6.551-6.332c-3.916-0.374-7.332,1.855-7.629,4.98
					c-0.298,3.123,2.635,5.959,6.549,6.332C178.496,344.575,181.912,342.346,182.211,339.222z"/>
				<path style="fill:#2B1806;" d="M189.305,328.583c0.242-2.533-1.584-4.78-4.081-5.018c-2.494-0.237-4.714,1.623-4.955,4.156
					c-0.242,2.533,1.586,4.78,4.08,5.018C186.845,332.977,189.063,331.116,189.305,328.583z"/>
				<path style="fill:#512F07;" d="M212.959,321.636l13.473,3.976l-8.227,8.066c0,0-2.696-0.68-5.017-2.123
					c-4.046-2.515-4.78-3.389-4.78-3.389s0.604-1.837,2.467-4.355C211.898,322.426,212.959,321.636,212.959,321.636z"/>
			</g>
			<g>
				<g>
					<path style="fill:#512F07;" d="M180.78,393.012c-0.109,0-0.221-0.011-0.333-0.034c-0.876-0.184-1.438-1.042-1.255-1.918
						l1.294-6.199c0.184-0.876,1.04-1.438,1.918-1.256c0.876,0.184,1.438,1.042,1.255,1.918l-1.294,6.199
						C182.206,392.487,181.532,393.012,180.78,393.012z"/>
				</g>
				<g>
					<path style="fill:#512F07;" d="M190.071,395.643c-0.034,0-0.067-0.001-0.101-0.003c-0.894-0.056-1.573-0.824-1.518-1.718
						l0.206-3.339c0.055-0.894,0.835-1.564,1.717-1.519c0.894,0.056,1.573,0.824,1.518,1.718l-0.206,3.339
						C191.635,394.981,190.921,395.643,190.071,395.643z"/>
				</g>
				<g>
					<path style="fill:#512F07;" d="M210.535,380.951c-0.033,0-0.066-0.001-0.1-0.003c-0.894-0.055-1.574-0.822-1.52-1.717
						l0.228-3.751c0.054-0.893,0.829-1.571,1.716-1.52c0.894,0.055,1.574,0.822,1.52,1.717l-0.228,3.75
						C212.099,380.287,211.385,380.951,210.535,380.951z"/>
				</g>
				<g>
					<path style="fill:#512F07;" d="M167.44,381.811c-0.922-0.015-1.636-0.752-1.621-1.648l0.071-4.376
						c0.014-0.886,0.737-1.595,1.62-1.595c0.922,0.015,1.636,0.752,1.621,1.648l-0.071,4.376
						C169.046,381.102,168.323,381.811,167.44,381.811z"/>
				</g>
				<g>
					<path style="fill:#512F07;" d="M201.568,384.991c-0.941-0.025-1.646-0.771-1.621-1.667l0.09-3.222
						c0.025-0.895,0.778-1.635,1.666-1.574c0.895,0.024,1.6,0.771,1.575,1.666l-0.09,3.222
						C203.163,384.295,202.442,384.991,201.568,384.991z"/>
				</g>
			</g>
		</g>
		<path style="fill:#B78029;" d="M125.377,337.329c7.52-3.894,13.496-4.767,13.496-4.767s11.197,8.018,9.852,22.57
			c-1.324,12.95-8.02,22.218-20.561,27.782c-32.589,14.46-63.235,7.108-63.235,7.108s17.139-20.149,31.938-32.864
			C112.67,343.591,117.238,341.544,125.377,337.329z"/>
	</g>
	<g>
		<path style="fill:#512F07;" d="M349.627,184.387c-0.714-0.32-1.547-0.001-1.864,0.71l-9.165,20.435l-9.917,1.862
			c-0.766,0.144-1.27,0.881-1.126,1.647c0.127,0.678,0.72,1.151,1.385,1.151c0.087,0,0.175-0.008,0.263-0.024l6.695-1.258
			l-5.205,6.066c-0.507,0.591-0.439,1.482,0.152,1.99c0.267,0.229,0.593,0.34,0.918,0.34c0.397,0,0.793-0.167,1.072-0.492
			l6.928-8.074l3.84,3.095c0.261,0.21,0.574,0.313,0.885,0.313c0.412,0,0.82-0.18,1.1-0.525c0.489-0.607,0.394-1.495-0.213-1.984
			l-4.058-3.271l9.021-20.114C350.656,185.541,350.337,184.706,349.627,184.387z"/>
		<path style="fill:#A87129;" d="M466.636,130.87c0.189-0.065,0.496-0.216,0.355,0.116c-0.764,1.797-3.392,9.488-11.933,19.086
			c-15.481,17.396-32.397,26.005-32.397,26.005s-0.671-11.007,3.836-24.878c2.443-7.517,8.644-9.583,8.644-9.583L466.636,130.87z"/>
		<path style="fill:#FFD57F;" d="M411.685,132.806c6.888,4.967,27.614,9.596,27.614,9.596s-0.911,12.023-8.79,24.194
			c-2.884,4.455-5.94,8.294-10.193,11.41c-10.983,8.049-24.991,11.986-33.944,13.72c-14.417,2.79-32.472-1.01-42.787-5.232
			c-19.882-8.139-30.685-21.807-36.147-37.756c-4.375-12.776,7.549-33.441,16.226-41.309c19.932-18.076,56.846-11.991,64.994,2.228
			C394.973,120.674,398.809,123.521,411.685,132.806z"/>
		<g>
			<path style="fill:#FF993F;" d="M390.517,124.763c0.087-7.807-1.85-21.454-10.646-33.054
				c-11.266-14.856-28.066-15.638-35.743-14.771c-2.207,0.249-6.288,1.36-8.641,2.216c-2.963,1.077-5.944,2.507-8.652,4.172
				c-5.065,3.113-9.312,7.02-11.656,10.787c-4.592,7.381-10.805,20.247-10.518,35.798c0.414,22.36,6.736,28.662,18.014,33.727
				c13.734,6.168,29.785,5.169,42.485,0.23C376.303,159.534,390.27,146.924,390.517,124.763z"/>
			<g>
				<path style="fill:#512F07;" d="M313.01,136.787c-0.063,0-0.128-0.004-0.193-0.013c-0.771-0.105-1.313-0.817-1.207-1.589
					l0.697-5.099c0.105-0.771,0.811-1.312,1.59-1.207c0.771,0.105,1.313,0.817,1.207,1.589l-0.697,5.099
					C314.31,136.275,313.705,136.787,313.01,136.787z"/>
				<path style="fill:#512F07;" d="M332.335,140.787c-0.779,0-1.411-0.632-1.411-1.411v-3.035c0-0.779,0.632-1.411,1.411-1.411
					s1.411,0.632,1.411,1.411v3.035C333.746,140.156,333.114,140.787,332.335,140.787z"/>
				<path style="fill:#512F07;" d="M325.121,149.001c-0.749,0-1.373-0.589-1.408-1.345l-0.179-3.835
					c-0.037-0.779,0.566-1.439,1.344-1.476c0.786-0.029,1.439,0.566,1.475,1.344l0.179,3.835c0.037,0.779-0.565,1.439-1.344,1.476
					C325.165,149.001,325.143,149.001,325.121,149.001z"/>
				<path style="fill:#512F07;" d="M341.095,137.717c-0.662,0-1.253-0.468-1.384-1.143l-0.768-3.958
					c-0.148-0.765,0.352-1.505,1.117-1.654c0.759-0.148,1.506,0.351,1.654,1.117l0.768,3.958c0.147,0.765-0.352,1.505-1.117,1.654
					C341.275,137.708,341.185,137.717,341.095,137.717z"/>
			</g>
			<g>
				<path style="fill:#FFB69F;" d="M362.417,104.645c0-2.89-2.937-5.232-6.559-5.232s-6.559,2.342-6.559,5.232
					c0,2.89,2.936,5.232,6.559,5.232S362.417,107.535,362.417,104.645z"/>
				<path style="fill:#2B1806;" d="M350.319,92.987c0-2.344-1.871-4.243-4.18-4.243c-2.309,0-4.18,1.899-4.18,4.243
					c0,2.342,1.871,4.243,4.18,4.243C348.448,97.23,350.319,95.329,350.319,92.987z"/>
				<path style="fill:#512F07;" d="M313.626,78.154l13.209,5.172c0,0,0.489,1.12,0.644,2.752c0.249,2.634-0.225,3.869-0.225,3.869
					s-2.046,0.922-5.573,1.746c-3.032,0.707-5.187,0.548-5.187,0.548L313.626,78.154z"/>
			</g>
			<path style="fill:#B78029;" d="M344.134,76.937c0,0,1.748,3.449,10.946,7.563c6.338,2.835,10.841,2.167,11.675,3.502
				c0.834,1.335-0.333,7.839,7.672,17.679c8.006,9.841,16.011,12.842,16.011,12.842s-1.625-19.361-12.079-30.053
				C364.126,73.914,344.134,76.937,344.134,76.937z"/>
		</g>
		<path style="fill:#512F07;" d="M397.595,213.008l-5.821-3.475l-1.277-20.477c-0.049-0.778-0.708-1.37-1.496-1.32
			c-0.777,0.048-1.369,0.718-1.32,1.496l1.276,20.476l-7.672,5.985c-0.614,0.479-0.724,1.366-0.244,1.981
			c0.278,0.356,0.693,0.543,1.113,0.543c0.304,0,0.609-0.098,0.867-0.298l6.379-4.977l1.437,8.88
			c0.111,0.693,0.711,1.186,1.391,1.186c0.075,0,0.151-0.006,0.228-0.018c0.77-0.124,1.292-0.849,1.167-1.619l-1.335-8.244
			l3.86,2.304c0.227,0.135,0.477,0.2,0.723,0.2c0.48,0,0.948-0.245,1.213-0.688C398.483,214.274,398.264,213.408,397.595,213.008z"
			/>
		<path style="fill:#B78029;" d="M387.501,106.451c0,0-11.058,8.604-10.391,22.041c0.564,7.216,2.509,15.109,12.917,21.646
			c8.823,5.542,26.152,5.962,36.437,2.622c11.164-3.625,23.257-16.118,23.257-16.118s-16.763,1.295-31.362-5.928
			C400.266,121.76,387.501,106.451,387.501,106.451z"/>
	</g>
	<g>
		<g>
			<path style="fill:#512F07;" d="M183.201,202.568l-10.342-6.123c-0.271-0.161-0.586-0.23-0.9-0.197l-19.939,2.094l3.109-6.945
				c0.328-0.733,0.135-1.638-0.534-2.081c-0.851-0.565-1.968-0.214-2.369,0.68l-3.769,8.417c-0.292,0.653-0.32,1.415,0.006,2.051
				c0.429,0.835,1.268,1.322,2.261,1.254l17.765-1.864l-3.237,4.129c-0.454,0.579-0.512,1.411-0.066,1.996
				c0.338,0.443,0.82,0.654,1.299,0.654c0.478,0,0.951-0.212,1.269-0.617l4.734-6.04l9.154,5.416
				c0.258,0.153,0.542,0.227,0.822,0.227c0.611,0,1.205-0.348,1.479-0.967C184.279,203.889,183.916,202.993,183.201,202.568z"/>
			<path style="fill:#FFD57F;" d="M169.106,183.201c0,0-9.082,9.334-14.453,9.551c-5.808,0.235-13.339-6.632-13.339-6.632
				s7.226-0.088,14.901-0.805C165.38,184.46,169.106,183.201,169.106,183.201z"/>
		</g>
		<path style="fill:#A87129;" d="M168.735,107.93c0,0-20.824-15.447-27.727-24.904c-4.995-6.843-10.889-15.733-13.347-26.227
			c-2.459-10.495-3.248-17.542-2.066-26.495c0.991-8.454,2.703-14.464,2.306-15.634c-0.636-1.87-7.221-0.254-12.516,8.351
			c-2.244,3.647-3.425,6.677-4.98,12.191c-1.847,6.547-1.569,14.966-1.569,14.966s-3.103-4.8-5.045-12.18
			c-2.107-8.006-1.929-10.258-2.92-14.652c-0.572-2.537-8.102,2.227-9.191,15.156c-0.651,7.747,0.741,13.097,2.206,17.357
			c2.493,7.26,4.418,8.934,4.418,8.934s-3.169,0.532-7.691-2.451c-2.155-1.421-3.08-1.893-6.077-4.358
			c-3-2.465-4.706,4.067-3.459,10.134c0.791,3.845,1.882,6.782,7.55,13.785c4.879,6.028,15.48,10.926,15.48,10.926
			s-16.34-1.954-18.643-0.308c-2.302,1.646,1.207,9.745,8.188,14.904c6.904,5.104,14.108,7.452,17.057,8.378
			c2.948,0.928-16.514,0.726-14.977,3.687c1.536,2.96,5.504,7.203,14.223,9.616c5.845,1.617,22.22-0.361,34.153-4.428
			C158.23,119.868,168.735,107.93,168.735,107.93z"/>
		<path style="fill:#A87129;" d="M47.712,182.208c-0.278,0.143-0.083,0.43,0.585,0.606c3.827,1.007,12.459,3.032,31.089,2.4
			c17.827-0.604,38.542-4.902,38.542-4.902s-9.745-5.077-15.444-8.997c-10.542-7.252-18.079-8.846-18.079-8.846l-12.751,7.44
			l-10.934,5.616L47.712,182.208z"/>
		<path style="fill:#FFD57F;" d="M106.812,139.187c-12.422,12.538-21.268,21.369-25.23,24.928c0,0,21.839,21.873,61.187,22.544
			c15.403-0.124,31.671-1.445,44.921-9.736c20.815-13.026,28.738-25.381,32.834-41.362c2.403-13.962-16.838-25.019-28.536-28.777
			c-11.698-3.76-39.834-5.203-53.953,4.605C123.588,121.424,122.182,123.673,106.812,139.187z"/>
		<g>
			<path style="fill:#FF993F;" d="M222.188,108.645c-1.61-11.918-5.559-21.9-14.418-29.198c-8.859-7.298-15.687-7.644-23.516-7.508
				c-10.382,0.18-24.469,6.543-32.326,17.455c-8.979,12.471-11.162,19.307-12.478,27.37c-2.084,12.784,0.25,22.834,5.64,29.792
				c7.808,10.076,17.772,14.663,31.161,16.301c16.945,2.072,34.886-3.633,40.351-15.954
				C222.148,134.401,223.798,120.563,222.188,108.645z"/>
			<path style="fill:#B78029;" d="M210.182,81.619c0,0-6.419,1.184-14.63,0.621c-6.569-0.45-7.977-1.177-12.183-1.911
				c-1.539-0.269-3.191-0.011-4.342,2.456c-2.115,4.532-4.753,12.858-11.18,20.748c-12.388,15.208-29.208,22.057-29.208,22.057
				s-0.029-10.91,3.727-20.244c4.055-9.157,5.615-13.011,15.704-22.834c6.486-6.392,19.128-12.934,31.616-11.155
				C204.225,73.612,210.182,81.619,210.182,81.619z"/>
			<g>
				<path style="fill:#512F07;" d="M180.992,155.851c-0.177,0-0.358-0.029-0.535-0.092c-0.84-0.295-1.281-1.215-0.985-2.055
					l2.03-5.771c0.296-0.839,1.216-1.281,2.055-0.985c0.84,0.295,1.281,1.215,0.985,2.055l-2.03,5.771
					C182.279,155.437,181.657,155.851,180.992,155.851z"/>
				<path style="fill:#512F07;" d="M192.653,155.964c-0.104,0-0.208-0.01-0.313-0.031c-0.873-0.171-1.442-1.019-1.27-1.892
					l0.624-3.17c0.171-0.874,1.02-1.443,1.892-1.27c0.873,0.171,1.442,1.019,1.27,1.892l-0.624,3.17
					C194.082,155.432,193.408,155.964,192.653,155.964z"/>
				<path style="fill:#512F07;" d="M202.137,145.293c-0.103,0-0.207-0.01-0.311-0.03c-0.873-0.171-1.443-1.017-1.272-1.891
					l0.696-3.563c0.171-0.874,1.018-1.443,1.891-1.272c0.874,0.171,1.443,1.017,1.272,1.891l-0.696,3.563
					C203.566,144.759,202.892,145.293,202.137,145.293z"/>
				<path style="fill:#512F07;" d="M172.739,145.96c-0.215,0-0.434-0.043-0.643-0.135c-0.816-0.355-1.189-1.305-0.833-2.121
					l2.092-4.797c0.355-0.816,1.305-1.191,2.121-0.833c0.816,0.355,1.189,1.305,0.833,2.121l-2.092,4.797
					C173.953,145.598,173.36,145.96,172.739,145.96z"/>
				<path style="fill:#512F07;" d="M207.644,142.851c-0.085,0-0.172-0.007-0.259-0.021c-0.879-0.142-1.476-0.969-1.334-1.848
					l0.497-3.073c0.142-0.879,0.971-1.48,1.848-1.334c0.879,0.142,1.476,0.969,1.334,1.848l-0.497,3.073
					C209.105,142.288,208.42,142.851,207.644,142.851z"/>
			</g>
			<g>
				<path style="fill:#FFB69F;" d="M195.048,98.693c0.018-3.031-3.047-5.507-6.847-5.531c-3.8-0.024-6.896,2.416-6.913,5.447
					c-0.019,3.031,3.046,5.507,6.846,5.531C191.933,104.164,195.029,101.725,195.048,98.693z"/>
				<path style="fill:#2B1806;" d="M198.759,87.341c0.014-2.459-1.935-4.464-4.358-4.478c-2.422-0.016-4.398,1.966-4.412,4.424
					c-0.014,2.457,1.936,4.464,4.357,4.478C196.767,91.779,198.743,89.799,198.759,87.341z"/>
				<path style="fill:#512F07;" d="M211.358,82.827l13.395,1.216l-6.288,10.015c0,0-2.345-0.268-5.005-0.894
					c-2.887-0.68-5.486-2.059-5.486-2.059s0.116-1.93,1.275-4.84C209.887,84.666,211.358,82.827,211.358,82.827z"/>
			</g>
		</g>
		<path style="fill:#B78029;" d="M169.627,101.149c0,0-27.765-2.652-62.916-17.156c-14.033-5.79-21.49-13.403-28.806-23.568
			C62.395,38.871,59.152,16.899,57.302,15.542c-1.85-1.357-6.684,3.944-8.068,14.936c-2.182,17.338,4.178,31.732,4.178,31.732
			s-3.62-1.983-9.096-8.18c-4.583-5.187-7.675-11.235-10.794-16.837c-1.561-2.804-8.647,6.455-4.297,20.547
			c2.888,9.356,6.74,13.728,10.273,17.592c6.017,6.582,13.782,10.223,13.782,10.223S49.604,86.259,42.52,85
			c-4.59-0.816-7.056-1.988-11.392-3.227c-4.338-1.239-3.774,7.325,0.783,12.896c3.398,4.154,9.6,9.273,17.357,12.019
			c7.587,2.686,15.443,2.988,15.443,2.988s-1.687,1.939-7.285,4.264c-5.014,2.082-9.88,3.257-11.146,4.566
			c-1.691,2.82,4.619,10.545,17.443,11.744c11.564,1.081,18.198-0.289,21.77-0.665c-3.089,3.491-8.796,6.647-17.189,12.489
			c-3.18,2.213,4.314,7.487,22.427,4.835c6.973-1.021,25.508-6.699,41.228-15.377C160.089,116.004,169.627,101.149,169.627,101.149z
			"/>
	</g>
</g>
</svg>
